<?xml version="1.0" encoding="UTF-8"?>
<svg viewBox="0 0 1024 768" xmlns="http://www.w3.org/2000/svg">
 <g fill="#b2b2b2">
  <path d="m56.419 255.36c0 49.516 44.49 235.17 55.648 278.24 8.245 31.823 20.811 64.568 35.414 92.747 19.265 37.179 64.926 49.83 101.18 58.577 52.392 12.637 113.08 14.643 166.94 14.643 50.707 0 106.66-15.83 155.3-27.564 11.91-2.872 43.024-6.508 54.829-9.762 45.895-12.653 69.397-24.001 118.7-35.894 33.529-8.087 68.606-28.901 96.122-48.815 34.103-24.68 60.854-55.51 86-87.865 5.061-6.508 10.119-13.016 15.178-19.524 19.406-24.968 30.354-66.798 30.354-97.63 0-37.49 5.128-65.73-10.118-102.51-15.009-36.207-48.047-61.005-75.885-87.866-33.099-31.938-58.514-64.688-97.648-83.568-39.909-19.254-97.658-20.02-141.65-34.17-55.451-17.835-122.48-23.822-180.59-23.822h-131.53c-45.126 0-40.415 6.8879-83.638 15.229-30.513 5.8881-194.6 141.99-194.6 199.55z" fill-rule="evenodd" stroke-width=".814"/>
  <g stroke="#000">
   <g stroke-linecap="round" stroke-miterlimit="0" stroke-width="11.3">
    <path d="m758.06 554.65a301.88 294.95 0 1 1 -71.372 -444.07"/>
    <path d="m357.53 216.06a224.77 219.36 0 1 1 173.02 359.44"/>
   </g>
   <g stroke-width="5.883">
    <g fill-opacity=".75" fill-rule="evenodd">
     <path d="m803.27 229.26l0.8911-75.168s-1.3367-15.034 11.146-15.034c12.038 0 9.808 15.034 9.808 15.034l-0.4456 75.168s-1.3384 7.5172 8.9169 7.9594c10.254 0.4422 8.4695-8.4015 8.4695-8.4015l-0.4456-73.842s-0.89111-15.919 9.8098-15.919c10.699 0 8.4695 16.361 8.4695 16.361v75.61s3.3445 6.5218 10.701 6.1906c7.3565-0.3329 8.5814-6.3016 8.805-6.136l1.0031-75.223s0-15.919 9.3624-16.361c9.3626-0.44222 9.3626 16.361 9.3626 16.361l-0.4456 79.59s4.9922 64.3-25.489 68.624c-26.98 3.8277 10.645 228.68 0.58539 235.37-9.5162 6.3289-11.898 7.442-20.815 7.8842-8.9169 0.4422-17.64-2.7283-23.336-9.134-10.495-11.802 22.861-232.58 2.6875-235.43-26.286-3.7219-29.487-73.944-29.041-73.502z"/>
     <path d="m109.69 181.71c12.038-22.552 36.559-26.244 47.258-26.244 10.701 0 39.526 2.5148 47.705 28.013 8.2843 25.823 4.5467 143.89-25.935 148.21-26.98 3.8278 10.645 228.68 0.58539 235.37-9.5162 6.3289-11.898 7.4421-20.815 7.8843-8.9169 0.4422-16.757-1.0039-22.454-7.4096-10.495-11.802 21.978-231.72 1.805-234.57-26.286-3.7219-40.188-128.71-28.15-151.26z"/>
    </g>
    <path d="m158.34 183.56a29.566 56.966 0 1 1 1.578 113.5" stroke-linecap="round"/>
   </g>
  </g>
 </g>
</svg>
